<?xml version="1.0" encoding="UTF-8"?>
<!DOCTYPE svg PUBLIC "-//W3C//DTD SVG 1.1//EN" "http://www.w3.org/Graphics/SVG/1.1/DTD/svg11.dtd">
<!-- Creator: CorelDRAW -->
<svg xmlns="http://www.w3.org/2000/svg" xml:space="preserve" width="46.5666mm" height="38.1mm" style="shape-rendering:geometricPrecision; text-rendering:geometricPrecision; image-rendering:optimizeQuality; fill-rule:evenodd; clip-rule:evenodd"
viewBox="0 0 46.5666 38.1"
 xmlns:xlink="http://www.w3.org/1999/xlink">
 <defs>
  <style type="text/css">
   <![CDATA[
    .fil0 {fill:#D2D3D5}
   ]]>
  </style>
 </defs>
 <g id="Capa_x0020_1">
  <metadata id="CorelCorpID_0Corel-Layer"/>
  <path class="fil0" d="M-2.2014 -7.7894l0.0847 0 0 -0.1693 0.0847 0 0 -0.0847 0.1693 0 0 -0.0846 11.684 0 0 0.0846 0.1693 0 0 0.0847 0.0847 0 0 0.1693 0.0847 0 0 0.508 -0.0847 0 0 0.254 -0.0847 0 0 0.0847 -0.0846 0 0 0.1693 -0.0847 0 0 0.0847 -0.1693 0 0 0.0847 -0.1694 0 0 0.0846 -11.0066 0 0 -0.0846 -0.1694 0 0 -0.0847 -0.1693 0 0 -0.0847 -0.0847 0 0 -0.1693 -0.0846 0 0 -0.0847 -0.0847 0 0 -0.3386 -0.0847 0 0 -0.4234zm-6.5193 -0.8466l0.0847 0 0 -0.254 0.0846 0 0 -0.0847 0.0847 0 0 -0.0847 0.4233 0 0 0.0847 0.6774 0 0 0.0847 0.6773 0 0 0.0846 0.508 0 0 0.0847 0.6773 0 0 0.0847 0.6774 0 0 0.0846 0.0846 0 0 0.0847 0.1694 0 0 0.0847 0.1693 0 0 0.0846 0.0847 0 0 0.0847 0.0846 0 0 0.0847 0.0847 0 0 0.1693 0.0847 0 0 0.1693 0.0846 0 0 0.254 0.0847 0 0 1.016 -3.8947 0 0 -0.0846 -0.254 0 0 -0.0847 -0.0846 0 0 -0.0847 -0.1694 0 0 -0.1693 -0.1693 0 0 -0.1693 -0.0847 0 0 -0.1694 -0.0846 0 0 -0.1693 -0.0847 0 0 -1.1853zm25.3153 1.27l-0.0846 0 0 0.1693 -0.0847 0 0 0.1693 -0.0847 0 0 0.0847 -0.0846 0 0 0.0847 -0.0847 0 0 0.0846 -0.0847 0 0 0.0847 -0.1693 0 0 0.0847 -0.254 0 0 0.0846 -3.8947 0 0 -0.9313 0.0847 0 0 -0.1693 0.0847 0 0 -0.254 0.0846 0 0 -0.0847 0.0847 0 0 -0.1693 0.0847 0 0 -0.0847 0.0846 0 0 -0.0847 0.0847 0 0 -0.0846 0.1693 0 0 -0.0847 0.254 0 0 -0.0847 0.254 0 0 -0.0846 0.5927 0 0 -0.0847 0.6773 0 0 -0.0847 0.508 0 0 -0.0846 0.6774 0 0 -0.0847 0.6773 0 0 -0.0847 0.254 0 0 0.0847 0.0847 0 0 0.1693 0.0846 0 0 0.4234 0.0847 0 0 0.762 -0.0847 0 0 0.254zm-22.4366 -5.334l0.0846 0 0 -0.1694 0.0847 0 0 -0.1693 0.0847 0 0 -0.1693 0.0846 0 0 -0.1694 0.0847 0 0 -0.1693 0.0847 0 0 -0.0847 0.0846 0 0 -0.1693 0.0847 0 0 -0.1693 0.0847 0 0 -0.1694 0.0846 0 0 -0.0846 0.0847 0 0 -0.1694 0.0847 0 0 -0.1693 0.0846 0 0 -0.1693 0.0847 0 0 -0.1694 0.0847 0 0 -0.1693 0.0846 0 0 -0.0847 0.0847 0 0 -0.1693 0.0847 0 0 -0.1693 0.0846 0 0 -0.1694 0.0847 0 0 -0.0846 0.0847 0 0 -0.1694 0.0846 0 0 -0.1693 0.0847 0 0 -0.1693 0.0847 0 0 -0.1694 0.0846 0 0 -0.0846 0.0847 0 0 -0.1694 0.0847 0 0 -0.1693 0.0846 0 0 -0.0847 0.0847 0 0 -0.1693 0.0847 0 0 -0.0847 0.0846 0 0 -0.0846 0.0847 0 0 -0.0847 0.0847 0 0 -0.0847 0.0846 0 0 -0.0846 0.1694 0 0 -0.0847 0.1693 0 0 -0.0847 0.0847 0 0 -0.0846 0.254 0 0 -0.0847 0.4233 0 0 -0.0847 11.938 0 0 0.0847 0.254 0 0 0.0847 0.1693 0 0 0.0846 0.254 0 0 0.0847 0.0847 0 0 0.0847 0.0847 0 0 0.0846 0.1693 0 0 0.0847 0.0847 0 0 0.0847 0.0846 0 0 0.0846 0.0847 0 0 0.1694 0.0847 0 0 0.0846 0.0846 0 0 0.1694 0.0847 0 0 0.1693 0.0847 0 0 0.1693 0.0846 0 0 0.0847 0.0847 0 0 0.1693 0.0847 0 0 0.1694 0.0846 0 0 0.1693 0.0847 0 0 0.0847 0.0847 0 0 0.1693 0.0846 0 0 0.1693 0.0847 0 0 0.1694 0.0847 0 0 0.1693 0.0846 0 0 0.1693 0.0847 0 0 0.1694 0.0847 0 0 0.0846 0.0846 0 0 0.1694 0.0847 0 0 0.1693 0.0847 0 0 0.1693 0.0846 0 0 0.1694 0.0847 0 0 0.1693 0.0847 0 0 0.1693 0.0846 0 0 0.0847 0.0847 0 0 0.1693 0.0847 0 0 0.1694 0.0846 0 0 0.1693 0.0847 0 0 0.1693 0.0847 0 0 0.1694 0.0846 0 0 0.1693 -19.6426 0 0 -0.1693zm3.556 -6.7734l-0.4234 0 0 0.0847 -0.254 0 0 0.0847 -0.1693 0 0 0.0846 -0.254 0 0 0.0847 -0.0847 0 0 0.0847 -0.1693 0 0 0.0846 -0.1693 0 0 0.0847 -0.0847 0 0 0.0847 -0.1693 0 0 0.0846 -0.0847 0 0 0.0847 -0.0847 0 0 0.0847 -0.0846 0 0 0.0846 -0.0847 0 0 0.0847 -0.0847 0 0 0.0847 -0.0846 0 0 0.0846 -0.0847 0 0 0.1694 -0.0847 0 0 0.0846 -0.0846 0 0 0.0847 -0.0847 0 0 0.1693 -0.0847 0 0 0.1694 -0.0846 0 0 0.0846 -0.0847 0 0 0.1694 -0.0847 0 0 0.1693 -0.0846 0 0 0.1693 -0.0847 0 0 0.1694 -0.0847 0 0 0.1693 -0.0846 0 0 0.0847 -0.0847 0 0 0.1693 -0.0847 0 0 0.1693 -0.0846 0 0 0.1694 -0.0847 0 0 0.1693 -0.0847 0 0 0.0847 -0.0846 0 0 0.1693 -0.0847 0 0 0.1693 -0.0847 0 0 0.1694 -0.0846 0 0 0.1693 -0.0847 0 0 0.1693 -0.0847 0 0 0.1694 -0.0846 0 0 0.0846 -0.0847 0 0 0.1694 -0.0847 0 0 0.1693 -0.0846 0 0 0.1693 -0.0847 0 0 0.1694 -0.0847 0 0 0.0846 -0.0846 0 0 0.1694 -0.0847 0 0 0.1693 -0.0847 0 0 0.1693 -0.0846 0 0 0.1694 -0.0847 0 0 0.1693 -0.0847 0 0 0.1693 -0.0846 0 0 0.1694 -0.1694 0 0 -0.1694 -0.0846 0 0 -0.0846 -0.0847 0 0 -0.0847 -0.0847 0 0 -0.1693 -0.0846 0 0 -0.0847 -0.0847 0 0 -0.1693 -0.0847 0 0 -0.0847 -0.0846 0 0 -0.1693 -0.0847 0 0 -0.0847 -0.0847 0 0 -0.0847 -0.1693 0 0 -0.0846 -0.1693 0 0 -0.0847 -0.8467 0 0 0.0847 -0.5927 0 0 0.0846 -0.254 0 0 0.0847 -0.1693 0 0 0.0847 -0.1693 0 0 0.0846 -0.0847 0 0 0.0847 -0.0847 0 0 0.0847 -0.0846 0 0 0.0846 -0.0847 0 0 0.254 -0.0847 0 0 0.5927 0.0847 0 0 0.254 0.0847 0 0 0.0847 0.0846 0 0 0.1693 0.0847 0 0 0.0847 0.1693 0 0 0.0846 0.0847 0 0 0.0847 0.254 0 0 0.0847 0.9313 0 0 0.0846 0.508 0 0 0.0847 -0.0846 0 0 0.0847 -0.0847 0 0 0.0846 -0.0847 0 0 0.0847 -0.0846 0 0 0.1693 -0.0847 0 0 0.0847 -0.0847 0 0 0.0847 -0.0846 0 0 0.1693 -0.0847 0 0 0.0847 -0.0847 0 0 0.1693 -0.0846 0 0 0.0847 -0.0847 0 0 0.1693 -0.0847 0 0 0.1693 -0.0846 0 0 0.1694 -0.0847 0 0 0.1693 -0.0847 0 0 0.254 -0.0846 0 0 0.254 -0.0847 0 0 0.9313 -0.0847 0 0 0.1694 0.0847 0 0 2.032 -0.0847 0 0 0.6773 0.0847 0 0 5.2493 0.0847 0 0 0.254 0.0846 0 0 0.1694 0.0847 0 0 0.0846 0.0847 0 0 0.1694 0.0846 0 0 0.0846 0.0847 0 0 0.0847 0.1693 0 0 0.0847 0.0847 0 0 0.0846 0.1693 0 0 0.0847 0.1694 0 0 0.0847 0.254 0 0 0.0846 2.9633 0 0 -0.0846 0.3387 0 0 -0.0847 0.1693 0 0 -0.0847 0.1693 0 0 -0.0846 0.0847 0 0 -0.0847 0.0847 0 0 -0.0847 0.0846 0 0 -0.0846 0.0847 0 0 -0.0847 0.0847 0 0 -0.1693 0.0846 0 0 -0.0847 0.0847 0 0 -0.254 0.0847 0 0 -0.4233 0.0846 0 0 -1.6934 17.4414 0 0 1.9474 0.0846 0 0 0.254 0.0847 0 0 0.1693 0.0847 0 0 0.1693 0.0846 0 0 0.0847 0.0847 0 0 0.1693 0.0847 0 0 0.0847 0.1693 0 0 0.0847 0.0847 0 0 0.0846 0.1693 0 0 0.0847 0.1693 0 0 0.0847 0.254 0 0 0.0846 3.048 0 0 -0.0846 0.254 0 0 -0.0847 0.1694 0 0 -0.0847 0.1693 0 0 -0.0846 0.0847 0 0 -0.0847 0.0846 0 0 -0.0847 0.1694 0 0 -0.1693 0.0846 0 0 -0.0847 0.0847 0 0 -0.1693 0.0847 0 0 -0.1693 0.0846 0 0 -0.254 0.0847 0 0 -8.7207 -0.0847 0 0 -0.3387 -0.0846 0 0 -0.254 -0.0847 0 0 -0.254 -0.0847 0 0 -0.1693 -0.0846 0 0 -0.1693 -0.0847 0 0 -0.1694 -0.0847 0 0 -0.0846 -0.0846 0 0 -0.1694 -0.0847 0 0 -0.0846 -0.0847 0 0 -0.1694 -0.0846 0 0 -0.0846 -0.0847 0 0 -0.0847 -0.0847 0 0 -0.1693 -0.0846 0 0 -0.0847 -0.0847 0 0 -0.0847 -0.0847 0 0 -0.0846 -0.0846 0 0 -0.0847 -0.0847 0 0 -0.0847 0.762 0 0 -0.0846 0.8467 0 0 -0.0847 0.1693 0 0 -0.0847 0.1693 0 0 -0.0846 0.0847 0 0 -0.0847 0.0847 0 0 -0.1693 0.0846 0 0 -0.0847 0.0847 0 0 -0.3387 0.0847 0 0 -0.4233 -0.0847 0 0 -0.254 -0.0847 0 0 -0.1693 -0.0846 0 0 -0.0847 -0.0847 0 0 -0.0847 -0.0847 0 0 -0.0846 -0.0846 0 0 -0.0847 -0.1694 0 0 -0.0847 -0.254 0 0 -0.0846 -0.508 0 0 -0.0847 -1.1006 0 0 0.0847 -0.1694 0 0 0.0846 -0.0846 0 0 0.0847 -0.0847 0 0 0.0847 -0.0847 0 0 0.1693 -0.0846 0 0 0.0847 -0.0847 0 0 0.1693 -0.0847 0 0 0.0847 -0.0846 0 0 0.1693 -0.0847 0 0 0.0847 -0.0847 0 0 0.0846 -0.0846 0 0 0.1694 -0.0847 0 0 0.0846 -0.0847 0 0 -0.1693 -0.0846 0 0 -0.254 -0.0847 0 0 -0.0847 -0.0847 0 0 -0.1693 -0.0846 0 0 -0.1693 -0.0847 0 0 -0.1694 -0.0847 0 0 -0.1693 -0.0846 0 0 -0.1693 -0.0847 0 0 -0.1694 -0.0847 0 0 -0.0846 -0.0846 0 0 -0.1694 -0.0847 0 0 -0.1693 -0.0847 0 0 -0.1693 -0.0846 0 0 -0.1694 -0.0847 0 0 -0.1693 -0.0847 0 0 -0.1693 -0.0846 0 0 -0.1694 -0.0847 0 0 -0.1693 -0.0847 0 0 -0.1693 -0.0846 0 0 -0.1694 -0.0847 0 0 -0.1693 -0.0847 0 0 -0.0847 -0.0846 0 0 -0.254 -0.0847 0 0 -0.0846 -0.0847 0 0 -0.1694 -0.0846 0 0 -0.1693 -0.0847 0 0 -0.1693 -0.0847 0 0 -0.1694 -0.0846 0 0 -0.1693 -0.0847 0 0 -0.1693 -0.0847 0 0 -0.0847 -0.0846 0 0 -0.1693 -0.0847 0 0 -0.0847 -0.0847 0 0 -0.1693 -0.0846 0 0 -0.0847 -0.0847 0 0 -0.0847 -0.0847 0 0 -0.0846 -0.0846 0 0 -0.0847 -0.0847 0 0 -0.0847 -0.0847 0 0 -0.0846 -0.0846 0 0 -0.0847 -0.0847 0 0 -0.0847 -0.0847 0 0 -0.0846 -0.0846 0 0 -0.0847 -0.1694 0 0 -0.0847 -0.0846 0 0 -0.0846 -0.1694 0 0 -0.0847 -0.1693 0 0 -0.0847 -0.1693 0 0 -0.0846 -0.1694 0 0 -0.0847 -0.254 0 0 -0.0847 -0.4233 0 0 -0.0846 -12.6153 0 0 0.0846z"/>
  <g id="_355242392">
   <polygon id="_354423784" class="fil0" points="3.4713,-31.4113 2.794,-31.4113 2.794,-31.3267 2.286,-31.3267 2.286,-31.242 1.8626,-31.242 1.8626,-31.1573 1.524,-31.1573 1.524,-31.0727 1.27,-31.0727 1.27,-30.988 0.9313,-30.988 0.9313,-30.9033 0.6773,-30.9033 0.6773,-30.8187 0.4233,-30.8187 0.4233,-30.734 0.254,-30.734 0.254,-30.6493 -0,-30.6493 -0,-30.5647 -0.1694,-30.5647 -0.1694,-30.48 -0.3387,-30.48 -0.3387,-30.3953 -0.508,-30.3953 -0.508,-30.3107 -0.6774,-30.3107 -0.6774,-30.226 -0.8467,-30.226 -0.8467,-30.1413 -1.016,-30.1413 -1.016,-30.0567 -1.1854,-30.0567 -1.1854,-29.972 -1.27,-29.972 -1.27,-29.8873 -1.4394,-29.8873 -1.4394,-29.8027 -1.6087,-29.8027 -1.6087,-29.718 -1.6934,-29.718 -1.6934,-29.6333 -1.8627,-29.6333 -1.8627,-29.5487 -1.9474,-29.5487 -1.9474,-29.464 -2.1167,-29.464 -2.1167,-29.3793 -2.2014,-29.3793 -2.2014,-29.2947 -2.286,-29.2947 -2.286,-29.21 -2.3707,-29.21 -2.3707,-29.1253 -2.4554,-29.1253 -2.4554,-29.0407 -2.54,-29.0407 -2.54,-28.956 -2.6247,-28.956 -2.6247,-28.194 -2.54,-28.194 -2.54,-28.1093 -2.4554,-28.1093 -2.4554,-28.0247 -2.3707,-28.0247 -2.3707,-27.94 -2.286,-27.94 -2.286,-27.8553 -2.1167,-27.8553 -2.1167,-27.7707 -1.6087,-27.7707 -1.6087,-27.8553 -1.3547,-27.8553 -1.3547,-27.94 -1.27,-27.94 -1.27,-28.0247 -1.1007,-28.0247 -1.1007,-28.1093 -1.016,-28.1093 -1.016,-28.194 -0.9314,-28.194 -0.9314,-28.2787 -0.762,-28.2787 -0.762,-28.3633 -0.5927,-28.3633 -0.5927,-28.448 -0.508,-28.448 -0.508,-28.5327 -0.3387,-28.5327 -0.3387,-28.6173 -0.1694,-28.6173 -0.1694,-28.702 -0,-28.702 -0,-28.7867 0.1693,-28.7867 0.1693,-28.8713 0.3386,-28.8713 0.3386,-28.956 0.508,-28.956 0.508,-29.0407 0.6773,-29.0407 0.6773,-29.1253 0.9313,-29.1253 0.9313,-29.21 1.1006,-29.21 1.1006,-29.2947 1.3546,-29.2947 1.3546,-29.3793 1.6086,-29.3793 1.6086,-29.464 1.8626,-29.464 1.8626,-29.5487 2.2013,-29.5487 2.2013,-29.6333 2.6246,-29.6333 2.6246,-29.718 3.1326,-29.718 3.1326,-29.8027 3.9793,-29.8027 3.9793,-29.8873 5.08,-29.8873 5.08,-29.8027 5.842,-29.8027 5.842,-29.718 6.35,-29.718 6.35,-29.6333 6.6886,-29.6333 6.6886,-29.5487 7.0273,-29.5487 7.0273,-29.464 7.2813,-29.464 7.2813,-29.3793 7.5353,-29.3793 7.5353,-29.2947 7.7893,-29.2947 7.7893,-29.21 8.0433,-29.21 8.0433,-29.1253 8.2126,-29.1253 8.2126,-29.0407 8.382,-29.0407 8.382,-28.956 8.5513,-28.956 8.5513,-28.8713 8.7206,-28.8713 8.7206,-28.7867 8.89,-28.7867 8.89,-28.702 9.0593,-28.702 9.0593,-28.6173 9.2286,-28.6173 9.2286,-28.5327 9.398,-28.5327 9.398,-28.448 9.4826,-28.448 9.4826,-28.3633 9.652,-28.3633 9.652,-28.2787 9.7366,-28.2787 9.7366,-28.194 9.906,-28.194 9.906,-28.1093 10.0753,-28.1093 10.0753,-28.0247 10.16,-28.0247 10.16,-27.94 10.2446,-27.94 10.2446,-27.8553 10.414,-27.8553 10.414,-27.7707 11.0913,-27.7707 11.0913,-27.8553 11.2606,-27.8553 11.2606,-27.94 11.3453,-27.94 11.3453,-28.0247 11.43,-28.0247 11.43,-28.1093 11.5146,-28.1093 11.5146,-28.3633 11.5993,-28.3633 11.5993,-28.7867 11.5146,-28.7867 11.5146,-28.956 11.43,-28.956 11.43,-29.0407 11.3453,-29.0407 11.3453,-29.1253 11.2606,-29.1253 11.2606,-29.21 11.176,-29.21 11.176,-29.2947 11.0913,-29.2947 11.0913,-29.3793 10.922,-29.3793 10.922,-29.464 10.8373,-29.464 10.8373,-29.5487 10.7526,-29.5487 10.7526,-29.6333 10.5833,-29.6333 10.5833,-29.718 10.414,-29.718 10.414,-29.8027 10.3293,-29.8027 10.3293,-29.8873 10.16,-29.8873 10.16,-29.972 10.0753,-29.972 10.0753,-30.0567 9.906,-30.0567 9.906,-30.1413 9.7366,-30.1413 9.7366,-30.226 9.5673,-30.226 9.5673,-30.3107 9.398,-30.3107 9.398,-30.3953 9.2286,-30.3953 9.2286,-30.48 9.0593,-30.48 9.0593,-30.5647 8.8053,-30.5647 8.8053,-30.6493 8.636,-30.6493 8.636,-30.734 8.382,-30.734 8.382,-30.8187 8.2126,-30.8187 8.2126,-30.9033 7.9586,-30.9033 7.9586,-30.988 7.7046,-30.988 7.7046,-31.0727 7.366,-31.0727 7.366,-31.1573 7.0273,-31.1573 7.0273,-31.242 6.6886,-31.242 6.6886,-31.3267 6.096,-31.3267 6.096,-31.4113 5.4186,-31.4113 5.4186,-31.496 3.4713,-31.496 "/>
   <polygon id="_354650440" class="fil0" points="3.3866,-28.0247 2.8786,-28.0247 2.8786,-27.94 2.4553,-27.94 2.4553,-27.8553 2.2013,-27.8553 2.2013,-27.7707 1.9473,-27.7707 1.9473,-27.686 1.6933,-27.686 1.6933,-27.6013 1.4393,-27.6013 1.4393,-27.5167 1.27,-27.5167 1.27,-27.432 1.1006,-27.432 1.1006,-27.3473 0.9313,-27.3473 0.9313,-27.2627 0.762,-27.2627 0.762,-27.178 0.5926,-27.178 0.5926,-27.0933 0.4233,-27.0933 0.4233,-27.0087 0.3386,-27.0087 0.3386,-26.924 0.1693,-26.924 0.1693,-26.8393 0.0846,-26.8393 0.0846,-26.7547 -0.0847,-26.7547 -0.0847,-26.67 -0.1694,-26.67 -0.1694,-26.5853 -0.254,-26.5853 -0.254,-26.5007 -0.3387,-26.5007 -0.3387,-26.416 -0.4234,-26.416 -0.4234,-25.654 -0.3387,-25.654 -0.3387,-25.5694 -0.254,-25.5694 -0.254,-25.4 -0.1694,-25.4 -0.1694,-25.3154 -0,-25.3154 -0,-25.2307 0.762,-25.2307 0.762,-25.3154 0.9313,-25.3154 0.9313,-25.4 1.016,-25.4 1.016,-25.4847 1.1006,-25.4847 1.1006,-25.5694 1.27,-25.5694 1.27,-25.654 1.4393,-25.654 1.4393,-25.7387 1.6086,-25.7387 1.6086,-25.8234 1.778,-25.8234 1.778,-25.908 1.9473,-25.908 1.9473,-25.9927 2.1166,-25.9927 2.1166,-26.0774 2.286,-26.0774 2.286,-26.162 2.54,-26.162 2.54,-26.2467 2.794,-26.2467 2.794,-26.3313 3.1326,-26.3313 3.1326,-26.416 3.7253,-26.416 3.7253,-26.5007 5.2493,-26.5007 5.2493,-26.416 5.7573,-26.416 5.7573,-26.3313 6.096,-26.3313 6.096,-26.2467 6.35,-26.2467 6.35,-26.162 6.604,-26.162 6.604,-26.0774 6.858,-26.0774 6.858,-25.9927 7.0273,-25.9927 7.0273,-25.908 7.1966,-25.908 7.1966,-25.8234 7.366,-25.8234 7.366,-25.7387 7.4506,-25.7387 7.4506,-25.654 7.62,-25.654 7.62,-25.5694 7.7893,-25.5694 7.7893,-25.4847 7.874,-25.4847 7.874,-25.4 8.0433,-25.4 8.0433,-25.3154 8.128,-25.3154 8.128,-25.2307 8.2973,-25.2307 8.2973,-25.146 8.8053,-25.146 8.8053,-25.2307 8.9746,-25.2307 8.9746,-25.3154 9.144,-25.3154 9.144,-25.4 9.2286,-25.4 9.2286,-25.5694 9.3133,-25.5694 9.3133,-25.654 9.398,-25.654 9.398,-26.3313 9.3133,-26.3313 9.3133,-26.416 9.2286,-26.416 9.2286,-26.5853 9.0593,-26.5853 9.0593,-26.67 8.9746,-26.67 8.9746,-26.7547 8.8053,-26.7547 8.8053,-26.8393 8.7206,-26.8393 8.7206,-26.924 8.5513,-26.924 8.5513,-27.0087 8.4666,-27.0087 8.4666,-27.0933 8.2973,-27.0933 8.2973,-27.178 8.128,-27.178 8.128,-27.2627 7.9586,-27.2627 7.9586,-27.3473 7.7893,-27.3473 7.7893,-27.432 7.62,-27.432 7.62,-27.5167 7.4506,-27.5167 7.4506,-27.6013 7.1966,-27.6013 7.1966,-27.686 6.9426,-27.686 6.9426,-27.7707 6.6886,-27.7707 6.6886,-27.8553 6.35,-27.8553 6.35,-27.94 6.0113,-27.94 6.0113,-28.0247 5.5033,-28.0247 5.5033,-28.1093 3.3866,-28.1093 "/>
   <polygon id="_354650512" class="fil0" points="4.064,-24.7227 3.4713,-24.7227 3.4713,-24.638 3.1326,-24.638 3.1326,-24.5534 2.8786,-24.5534 2.8786,-24.4687 2.7093,-24.4687 2.7093,-24.384 2.4553,-24.384 2.4553,-24.2994 2.3706,-24.2994 2.3706,-24.2147 2.2013,-24.2147 2.2013,-24.13 2.1166,-24.13 2.1166,-24.0454 2.032,-24.0454 2.032,-23.9607 1.9473,-23.9607 1.9473,-23.2834 2.032,-23.2834 2.032,-23.114 2.1166,-23.114 2.1166,-23.0294 2.2013,-23.0294 2.2013,-22.9447 2.286,-22.9447 2.286,-22.86 2.4553,-22.86 2.4553,-22.7754 2.6246,-22.7754 2.6246,-22.6907 2.9633,-22.6907 2.9633,-22.7754 3.1326,-22.7754 3.1326,-22.86 3.302,-22.86 3.302,-22.9447 3.556,-22.9447 3.556,-23.0294 3.81,-23.0294 3.81,-23.114 5.1646,-23.114 5.1646,-23.0294 5.4186,-23.0294 5.4186,-22.9447 5.588,-22.9447 5.588,-22.86 5.842,-22.86 5.842,-22.7754 6.0113,-22.7754 6.0113,-22.6907 6.35,-22.6907 6.35,-22.7754 6.5193,-22.7754 6.5193,-22.86 6.604,-22.86 6.604,-22.9447 6.7733,-22.9447 6.7733,-23.0294 6.858,-23.0294 6.858,-23.1987 6.9426,-23.1987 6.9426,-23.368 7.0273,-23.368 7.0273,-23.7067 6.9426,-23.7067 6.9426,-23.9607 6.858,-23.9607 6.858,-24.0454 6.7733,-24.0454 6.7733,-24.13 6.6886,-24.13 6.6886,-24.2147 6.5193,-24.2147 6.5193,-24.2994 6.35,-24.2994 6.35,-24.384 6.1806,-24.384 6.1806,-24.4687 6.0113,-24.4687 6.0113,-24.5534 5.6726,-24.5534 5.6726,-24.638 5.4186,-24.638 5.4186,-24.7227 4.826,-24.7227 4.826,-24.8074 4.064,-24.8074 "/>
  </g>
  <g id="_355242080">
   <path id="_354665456" class="fil0" d="M-22.9447 12.0226l-0.0846 0 0 0.254 -0.0847 0 0 0.1694 -0.0847 0 0 0.0846 -0.0846 0 0 0.1694 -0.0847 0 0 0.0846 -0.0847 0 0 0.0847 -0.0846 0 0 0.0847 -0.0847 0 0 0.0846 -0.0847 0 0 0.0847 -0.0846 0 0 0.0847 -0.1694 0 0 0.0846 -0.1693 0 0 0.0847 -0.1693 0 0 0.0847 -0.254 0 0 0.0846 -0.4234 0 0 0.0847 -3.048 0 0 -4.6567 2.54 0 0 0.0847 0.6774 0 0 0.0847 0.3386 0 0 0.0846 0.254 0 0 0.0847 0.1694 0 0 0.0847 0.1693 0 0 0.0846 0.1693 0 0 0.0847 0.0847 0 0 0.0847 0.0847 0 0 0.0846 0.0846 0 0 0.0847 0.0847 0 0 0.0847 0.0847 0 0 0.0846 0.0846 0 0 0.1694 0.0847 0 0 0.1693 0.0847 0 0 0.1693 0.0846 0 0 0.3387 0.0847 0 0 0.8467 -0.0847 0 0 0.3386zm-7.62 8.2973l2.54 0 0 -4.4026 3.048 0 0 -0.0847 0.8467 0 0 -0.0846 0.3387 0 0 -0.0847 0.3386 0 0 -0.0847 0.254 0 0 -0.0846 0.254 0 0 -0.0847 0.1694 0 0 -0.0847 0.1693 0 0 -0.0846 0.1693 0 0 -0.0847 0.0847 0 0 -0.0847 0.1693 0 0 -0.0846 0.0847 0 0 -0.0847 0.1693 0 0 -0.0847 0.0847 0 0 -0.0846 0.0847 0 0 -0.0847 0.0846 0 0 -0.0847 0.0847 0 0 -0.0846 0.0847 0 0 -0.0847 0.0846 0 0 -0.0847 0.0847 0 0 -0.0846 0.0847 0 0 -0.0847 0.0846 0 0 -0.0847 0.0847 0 0 -0.1693 0.0847 0 0 -0.0847 0.0846 0 0 -0.0846 0.0847 0 0 -0.1694 0.0847 0 0 -0.1693 0.0846 0 0 -0.1693 0.0847 0 0 -0.1694 0.0847 0 0 -0.254 0.0846 0 0 -0.3386 0.0847 0 0 -0.4234 0.0847 0 0 -1.524 -0.0847 0 0 -0.4233 -0.0847 0 0 -0.254 -0.0846 0 0 -0.254 -0.0847 0 0 -0.254 -0.0847 0 0 -0.0847 -0.0846 0 0 -0.1693 -0.0847 0 0 -0.1693 -0.0847 0 0 -0.0847 -0.0846 0 0 -0.0847 -0.0847 0 0 -0.1693 -0.0847 0 0 -0.0847 -0.0846 0 0 -0.0846 -0.0847 0 0 -0.0847 -0.0847 0 0 -0.0847 -0.0846 0 0 -0.0846 -0.0847 0 0 -0.0847 -0.0847 0 0 -0.0847 -0.0846 0 0 -0.0846 -0.1694 0 0 -0.0847 -0.0846 0 0 -0.0847 -0.0847 0 0 -0.0846 -0.1693 0 0 -0.0847 -0.1694 0 0 -0.0847 -0.0846 0 0 -0.0846 -0.1694 0 0 -0.0847 -0.254 0 0 -0.0847 -0.1693 0 0 -0.0846 -0.254 0 0 -0.0847 -0.1693 0 0 -0.0847 -0.4234 0 0 -0.0846 -0.4233 0 0 -0.0847 -0.6773 0 0 -0.0847 -5.5034 0 0 13.6313z"/>
   <polygon id="_350409808" class="fil0" points="-1.1854,6.5193 -1.27,6.5193 -1.27,6.7733 -1.1854,6.7733 -1.1854,13.5466 -1.27,13.5466 -1.27,14.224 -1.1854,14.224 -1.1854,15.5786 -1.27,15.5786 -1.27,16.9333 -1.1854,16.9333 -1.1854,17.6106 -1.27,17.6106 -1.27,18.288 -1.1854,18.288 -1.1854,20.2353 -1.27,20.2353 -1.27,20.3199 1.3546,20.3199 1.3546,17.272 1.4393,17.272 1.4393,17.1873 1.524,17.1873 1.524,17.1026 1.6086,17.1026 1.6086,16.9333 1.6933,16.9333 1.6933,16.8486 1.8626,16.8486 1.8626,16.6793 1.9473,16.6793 1.9473,16.5946 2.032,16.5946 2.032,16.51 2.1166,16.51 2.1166,16.4253 2.2013,16.4253 2.2013,16.3406 2.286,16.3406 2.286,16.256 2.3706,16.256 2.3706,16.1713 2.54,16.1713 2.54,16.3406 2.6246,16.3406 2.6246,16.4253 2.7093,16.4253 2.7093,16.51 2.794,16.51 2.794,16.6793 2.8786,16.6793 2.8786,16.764 2.9633,16.764 2.9633,16.8486 3.048,16.8486 3.048,17.018 3.1326,17.018 3.1326,17.1026 3.2173,17.1026 3.2173,17.1873 3.302,17.1873 3.302,17.3566 3.3866,17.3566 3.3866,17.4413 3.4713,17.4413 3.4713,17.6106 3.556,17.6106 3.556,17.6953 3.6406,17.6953 3.6406,17.78 3.7253,17.78 3.7253,17.9493 3.81,17.9493 3.81,18.034 3.8946,18.034 3.8946,18.1186 3.9793,18.1186 3.9793,18.2033 4.064,18.2033 4.064,18.3726 4.1486,18.3726 4.1486,18.4573 4.2333,18.4573 4.2333,18.6266 4.318,18.6266 4.318,18.7113 4.4026,18.7113 4.4026,18.7959 4.4873,18.7959 4.4873,18.9653 4.572,18.9653 4.572,19.0499 4.6566,19.0499 4.6566,19.1346 4.7413,19.1346 4.7413,19.3039 4.826,19.3039 4.826,19.3886 4.9106,19.3886 4.9106,19.4733 4.9953,19.4733 4.9953,19.6426 5.08,19.6426 5.08,19.7273 5.1646,19.7273 5.1646,19.8119 5.2493,19.8119 5.2493,19.9813 5.334,19.9813 5.334,20.0659 5.4186,20.0659 5.4186,20.1506 5.5033,20.1506 5.5033,20.3199 8.5513,20.3199 8.5513,20.2353 8.4666,20.2353 8.4666,20.1506 8.382,20.1506 8.382,19.9813 8.2973,19.9813 8.2973,19.8966 8.2126,19.8966 8.2126,19.8119 8.128,19.8119 8.128,19.6426 8.0433,19.6426 8.0433,19.5579 7.9586,19.5579 7.9586,19.4733 7.874,19.4733 7.874,19.3886 7.7893,19.3886 7.7893,19.2193 7.7046,19.2193 7.7046,19.1346 7.62,19.1346 7.62,19.0499 7.5353,19.0499 7.5353,18.9653 7.4506,18.9653 7.4506,18.7959 7.366,18.7959 7.366,18.7113 7.2813,18.7113 7.2813,18.6266 7.1966,18.6266 7.1966,18.4573 7.112,18.4573 7.112,18.3726 7.0273,18.3726 7.0273,18.288 6.9426,18.288 6.9426,18.1186 6.858,18.1186 6.858,18.034 6.7733,18.034 6.7733,17.9493 6.6886,17.9493 6.6886,17.8646 6.604,17.8646 6.604,17.6953 6.5193,17.6953 6.5193,17.6106 6.4346,17.6106 6.4346,17.526 6.35,17.526 6.35,17.3566 6.2653,17.3566 6.2653,17.272 6.1806,17.272 6.1806,17.1873 6.096,17.1873 6.096,17.1026 6.0113,17.1026 6.0113,16.9333 5.9266,16.9333 5.9266,16.8486 5.842,16.8486 5.842,16.764 5.7573,16.764 5.7573,16.5946 5.6726,16.5946 5.6726,16.51 5.588,16.51 5.588,16.4253 5.5033,16.4253 5.5033,16.3406 5.4186,16.3406 5.4186,16.1713 5.334,16.1713 5.334,16.0866 5.2493,16.0866 5.2493,16.002 5.1646,16.002 5.1646,15.8326 5.08,15.8326 5.08,15.748 4.9953,15.748 4.9953,15.6633 4.9106,15.6633 4.9106,15.5786 4.826,15.5786 4.826,15.4093 4.7413,15.4093 4.7413,15.3246 4.6566,15.3246 4.6566,15.24 4.572,15.24 4.572,15.0706 4.4873,15.0706 4.4873,14.986 4.4026,14.986 4.4026,14.9013 4.318,14.9013 4.318,14.732 4.2333,14.732 4.2333,14.6473 4.1486,14.6473 4.1486,14.5626 4.064,14.5626 4.064,14.3933 4.1486,14.3933 4.1486,14.3086 4.2333,14.3086 4.2333,14.224 4.318,14.224 4.318,14.1393 4.4026,14.1393 4.4026,14.0546 4.4873,14.0546 4.4873,13.97 4.572,13.97 4.572,13.8853 4.6566,13.8853 4.6566,13.8006 4.7413,13.8006 4.7413,13.716 4.826,13.716 4.826,13.6313 4.9106,13.6313 4.9106,13.5466 4.9953,13.5466 4.9953,13.462 5.08,13.462 5.08,13.3773 5.1646,13.3773 5.1646,13.2926 5.2493,13.2926 5.2493,13.208 5.334,13.208 5.334,13.0386 5.4186,13.0386 5.4186,12.954 5.5033,12.954 5.5033,12.8693 5.588,12.8693 5.588,12.7846 5.6726,12.7846 5.6726,12.7 5.7573,12.7 5.7573,12.6153 5.842,12.6153 5.842,12.5306 5.9266,12.5306 5.9266,12.446 6.0113,12.446 6.0113,12.3613 6.096,12.3613 6.096,12.2766 6.1806,12.2766 6.1806,12.192 6.2653,12.192 6.2653,12.1073 6.35,12.1073 6.35,12.0226 6.4346,12.0226 6.4346,11.938 6.5193,11.938 6.5193,11.8533 6.604,11.8533 6.604,11.7686 6.6886,11.7686 6.6886,11.5993 6.7733,11.5993 6.7733,11.5146 6.858,11.5146 6.858,11.43 6.9426,11.43 6.9426,11.3453 7.0273,11.3453 7.0273,11.2606 7.112,11.2606 7.112,11.176 7.1966,11.176 7.1966,11.0913 7.2813,11.0913 7.2813,11.0066 7.366,11.0066 7.366,10.922 7.4506,10.922 7.4506,10.8373 7.5353,10.8373 7.5353,10.7526 7.62,10.7526 7.62,10.668 7.7046,10.668 7.7046,10.5833 7.7893,10.5833 7.7893,10.4986 7.874,10.4986 7.874,10.414 7.9586,10.414 7.9586,10.3293 8.0433,10.3293 8.0433,10.2446 5.08,10.2446 5.08,10.3293 4.9953,10.3293 4.9953,10.414 4.9106,10.414 4.9106,10.5833 4.7413,10.5833 4.7413,10.7526 4.6566,10.7526 4.6566,10.8373 4.572,10.8373 4.572,10.922 4.4873,10.922 4.4873,11.0066 4.4026,11.0066 4.4026,11.0913 4.318,11.0913 4.318,11.176 4.2333,11.176 4.2333,11.2606 4.1486,11.2606 4.1486,11.3453 4.064,11.3453 4.064,11.43 3.9793,11.43 3.9793,11.5146 3.8946,11.5146 3.8946,11.5993 3.81,11.5993 3.81,11.684 3.7253,11.684 3.7253,11.7686 3.6406,11.7686 3.6406,11.8533 3.556,11.8533 3.556,11.938 3.4713,11.938 3.4713,12.0226 3.3866,12.0226 3.3866,12.192 3.302,12.192 3.302,12.2766 3.2173,12.2766 3.2173,12.3613 3.1326,12.3613 3.1326,12.446 3.048,12.446 3.048,12.5306 2.9633,12.5306 2.9633,12.6153 2.8786,12.6153 2.8786,12.7 2.794,12.7 2.794,12.7846 2.7093,12.7846 2.7093,12.8693 2.6246,12.8693 2.6246,12.954 2.54,12.954 2.54,13.0386 2.4553,13.0386 2.4553,13.1233 2.3706,13.1233 2.3706,13.208 2.286,13.208 2.286,13.2926 2.2013,13.2926 2.2013,13.3773 2.1166,13.3773 2.1166,13.462 2.032,13.462 2.032,13.6313 1.9473,13.6313 1.9473,13.716 1.8626,13.716 1.8626,13.8006 1.778,13.8006 1.778,13.8853 1.6933,13.8853 1.6933,13.97 1.6086,13.97 1.6086,14.0546 1.524,14.0546 1.524,14.1393 1.4393,14.1393 1.4393,14.224 1.3546,14.224 1.3546,6.4346 -1.1854,6.4346 "/>
   <path id="_354423808" class="fil0" d="M-12.8694 17.1026l-0.0846 0 0 0.254 -0.0847 0 0 0.0847 -0.0847 0 0 0.1693 -0.0846 0 0 0.0847 -0.0847 0 0 0.1693 -0.0847 0 0 0.0847 -0.0846 0 0 0.0847 -0.0847 0 0 0.0846 -0.0847 0 0 0.0847 -0.1693 0 0 0.0847 -0.0847 0 0 0.0846 -0.1693 0 0 0.0847 -0.1693 0 0 0.0846 -0.254 0 0 0.0847 -0.254 0 0 0.0847 -1.27 0 0 -0.0847 -0.3387 0 0 -0.0847 -0.1693 0 0 -0.0846 -0.1693 0 0 -0.0847 -0.0847 0 0 -0.0846 -0.0847 0 0 -0.0847 -0.0846 0 0 -0.0847 -0.0847 0 0 -0.1693 -0.0847 0 0 -0.3387 -0.0846 0 0 -0.254 0.0846 0 0 -0.4233 0.0847 0 0 -0.1693 0.0847 0 0 -0.0847 0.0846 0 0 -0.0847 0.0847 0 0 -0.0846 0.1693 0 0 -0.0847 0.0847 0 0 -0.0847 0.1693 0 0 -0.0846 0.254 0 0 -0.0847 0.4234 0 0 -0.0847 2.8786 0 0 0.5927 -0.0847 0 0 0.4233zm-2.7939 -7.0273l-0.5927 0 0 0.0847 -0.3387 0 0 0.0846 -0.3386 0 0 0.0847 -0.254 0 0 0.0847 -0.254 0 0 0.0846 -0.1694 0 0 0.0847 -0.0846 0 0 0.0847 -0.254 0 0 0.0846 -0.0847 0 0 0.0847 -0.1693 0 0 0.0847 -0.0847 0 0 0.0846 -0.1693 0 0 0.0847 -0.0847 0 0 0.0847 -0.0847 0 0 0.0846 -0.1693 0 0 0.0847 -0.0847 0 0 0.0847 -0.0846 0 0 0.0846 -0.0847 0 0 0.0847 -0.0847 0 0 0.0847 -0.0846 0 0 0.1693 0.0846 0 0 0.0847 0.0847 0 0 0.1693 0.0847 0 0 0.0847 0.0846 0 0 0.0846 0.0847 0 0 0.0847 0.0847 0 0 0.0847 0.0846 0 0 0.1693 0.0847 0 0 0.0847 0.0847 0 0 0.0846 0.0846 0 0 0.0847 0.0847 0 0 0.0847 0.0847 0 0 0.1693 0.0846 0 0 0.0847 0.0847 0 0 0.0846 0.1693 0 0 -0.0846 0.0847 0 0 -0.0847 0.0847 0 0 -0.0847 0.0846 0 0 -0.0846 0.0847 0 0 -0.0847 0.1693 0 0 -0.0847 0.0847 0 0 -0.0846 0.1693 0 0 -0.0847 0.1694 0 0 -0.0847 0.1693 0 0 -0.0846 0.1693 0 0 -0.0847 0.254 0 0 -0.0847 0.254 0 0 -0.0846 0.4234 0 0 -0.0847 1.1853 0 0 0.0847 0.4233 0 0 0.0846 0.1693 0 0 0.0847 0.254 0 0 0.0847 0.0847 0 0 0.0846 0.0847 0 0 0.0847 0.0846 0 0 0.0847 0.0847 0 0 0.0846 0.0847 0 0 0.0847 0.0846 0 0 0.1693 0.0847 0 0 0.0847 0.0847 0 0 0.254 0.0846 0 0 0.5927 0.0847 0 0 0.3386 -2.8786 0 0 0.0847 -0.9314 0 0 0.0847 -0.4233 0 0 0.0846 -0.3387 0 0 0.0847 -0.1693 0 0 0.0847 -0.1693 0 0 0.0846 -0.254 0 0 0.0847 -0.1694 0 0 0.0847 -0.1693 0 0 0.0846 -0.0847 0 0 0.0847 -0.0846 0 0 0.0847 -0.1694 0 0 0.0846 -0.0846 0 0 0.0847 -0.0847 0 0 0.0847 -0.0847 0 0 0.0846 -0.0846 0 0 0.0847 -0.0847 0 0 0.1693 -0.0847 0 0 0.0847 -0.0846 0 0 0.1693 -0.0847 0 0 0.1694 -0.0847 0 0 0.1693 -0.0846 0 0 0.254 -0.0847 0 0 0.508 -0.0847 0 0 0.762 0.0847 0 0 0.508 0.0847 0 0 0.254 0.0846 0 0 0.1693 0.0847 0 0 0.1693 0.0847 0 0 0.1694 0.0846 0 0 0.0846 0.0847 0 0 0.0847 0.0847 0 0 0.1693 0.0846 0 0 0.0847 0.1694 0 0 0.0847 0.0846 0 0 0.0846 0.0847 0 0 0.0847 0.0847 0 0 0.0847 0.1693 0 0 0.0846 0.0847 0 0 0.0847 0.1693 0 0 0.0847 0.254 0 0 0.0846 0.254 0 0 0.0847 0.254 0 0 0.0847 0.4233 0 0 0.0846 1.8627 0 0 -0.0846 0.3386 0 0 -0.0847 0.254 0 0 -0.0847 0.254 0 0 -0.0846 0.1694 0 0 -0.0847 0.1693 0 0 -0.0847 0.1693 0 0 -0.0846 0.0847 0 0 -0.0847 0.1693 0 0 -0.0847 0.0847 0 0 -0.0846 0.0847 0 0 -0.0847 0.0846 0 0 -0.0847 0.0847 0 0 -0.0846 0.0847 0 0 -0.0847 0.0846 0 0 -0.0847 0.0847 0 0 -0.0846 0.0847 0 0 1.1006 2.3706 0 0 -0.4233 -0.0846 0 0 -6.35 -0.0847 0 0 -0.5926 -0.0847 0 0 -0.3387 -0.0846 0 0 -0.254 -0.0847 0 0 -0.1693 -0.0847 0 0 -0.1694 -0.0846 0 0 -0.1693 -0.0847 0 0 -0.1693 -0.0847 0 0 -0.0847 -0.0846 0 0 -0.0847 -0.0847 0 0 -0.1693 -0.0847 0 0 -0.0847 -0.0846 0 0 -0.0846 -0.0847 0 0 -0.0847 -0.0847 0 0 -0.0847 -0.0846 0 0 -0.0846 -0.1694 0 0 -0.0847 -0.0846 0 0 -0.0847 -0.0847 0 0 -0.0846 -0.1693 0 0 -0.0847 -0.0847 0 0 -0.0847 -0.1693 0 0 -0.0846 -0.254 0 0 -0.0847 -0.254 0 0 -0.0847 -0.1694 0 0 -0.0846 -0.4233 0 0 -0.0847 -0.508 0 0 -0.0847 -1.6086 0 0 0.0847z"/>
   <polygon id="_355308672" class="fil0" points="-4.1487,10.2446 -4.2334,10.2446 -4.2334,10.3293 -4.4027,10.3293 -4.4027,10.414 -4.572,10.414 -4.572,10.4986 -4.7414,10.4986 -4.7414,10.5833 -4.826,10.5833 -4.826,10.668 -4.9954,10.668 -4.9954,10.7526 -5.08,10.7526 -5.08,10.8373 -5.1647,10.8373 -5.1647,10.922 -5.2494,10.922 -5.2494,11.0066 -5.334,11.0066 -5.334,11.0913 -5.4187,11.0913 -5.4187,11.176 -5.5034,11.176 -5.5034,11.3453 -5.6727,11.3453 -5.6727,11.5146 -5.7574,11.5146 -5.7574,11.684 -5.842,11.684 -5.842,11.7686 -5.9267,11.7686 -5.9267,10.3293 -5.842,10.3293 -5.842,10.2446 -8.382,10.2446 -8.382,20.3199 -5.842,20.3199 -5.842,14.6473 -5.7574,14.6473 -5.7574,14.224 -5.6727,14.224 -5.6727,14.0546 -5.588,14.0546 -5.588,13.8006 -5.5034,13.8006 -5.5034,13.6313 -5.4187,13.6313 -5.4187,13.5466 -5.334,13.5466 -5.334,13.462 -5.2494,13.462 -5.2494,13.2926 -5.1647,13.2926 -5.1647,13.208 -5.08,13.208 -5.08,13.1233 -4.9107,13.1233 -4.9107,12.954 -4.7414,12.954 -4.7414,12.8693 -4.826,12.8693 -4.826,12.7846 -4.7414,12.7846 -4.7414,12.7 -4.572,12.7 -4.572,12.6153 -4.4027,12.6153 -4.4027,12.5306 -4.1487,12.5306 -4.1487,12.446 -2.6247,12.446 -2.6247,10.16 -3.302,10.16 -3.302,10.2446 -3.7254,10.2446 -3.7254,10.3293 -4.1487,10.3293 "/>
   <polygon id="_354423832" class="fil0" points="9.9906,20.2353 12.2766,20.2353 12.2766,10.5833 12.192,10.5833 12.192,10.4986 12.2766,10.4986 12.2766,10.3293 9.9906,10.3293 "/>
   <polygon id="_356122936" class="fil0" points="10.7526,6.4346 10.414,6.4346 10.414,6.5193 10.2446,6.5193 10.2446,6.604 10.0753,6.604 10.0753,6.6886 9.9906,6.6886 9.9906,6.7733 9.906,6.7733 9.906,6.858 9.8213,6.858 9.8213,7.0273 9.7366,7.0273 9.7366,7.1966 9.652,7.1966 9.652,7.4506 9.5673,7.4506 9.5673,7.9586 9.652,7.9586 9.652,8.2126 9.7366,8.2126 9.7366,8.382 9.8213,8.382 9.8213,8.5513 9.906,8.5513 9.906,8.636 9.9906,8.636 9.9906,8.7206 10.16,8.7206 10.16,8.8053 10.2446,8.8053 10.2446,8.89 10.414,8.89 10.414,8.9746 10.7526,8.9746 10.7526,9.0593 11.43,9.0593 11.43,8.9746 11.684,8.9746 11.684,8.89 11.8533,8.89 11.8533,8.8053 11.938,8.8053 11.938,8.7206 12.0226,8.7206 12.0226,8.636 12.1073,8.636 12.1073,8.5513 12.192,8.5513 12.192,8.4666 12.2766,8.4666 12.2766,8.382 12.3613,8.382 12.3613,8.128 12.446,8.128 12.446,7.1966 12.3613,7.1966 12.3613,7.0273 12.2766,7.0273 12.2766,6.9426 12.192,6.9426 12.192,6.858 12.1073,6.858 12.1073,6.7733 12.0226,6.7733 12.0226,6.6886 11.938,6.6886 11.938,6.604 11.8533,6.604 11.8533,6.5193 11.684,6.5193 11.684,6.4346 11.43,6.4346 11.43,6.35 10.7526,6.35 "/>
   <path id="_354650248" class="fil0" d="M12.192 10.5833l0.0846 0 0 9.652 -2.286 0 0 -9.906 2.286 0 0 0.1693 -0.0846 0 0 0.0847zm0.0846 -0.3387l-2.4553 0 0 10.0753 2.54 0 0 -10.1599 -0.0847 0 0 0.0846z"/>
   <polygon id="_352820904" class="fil0" points="-4.1487,10.2446 -4.1487,10.3293 -3.7254,10.3293 -3.7254,10.2446 -3.302,10.2446 -3.302,10.16 -2.6247,10.16 -2.6247,12.446 -4.1487,12.446 -4.1487,12.5306 -4.4027,12.5306 -4.4027,12.6153 -4.572,12.6153 -4.572,12.7 -4.7414,12.7 -4.7414,12.7846 -4.826,12.7846 -4.826,12.8693 -4.572,12.8693 -4.572,12.7846 -4.4027,12.7846 -4.4027,12.7 -4.2334,12.7 -4.2334,12.6153 -3.81,12.6153 -3.81,12.5306 -2.6247,12.5306 -2.6247,12.6153 -2.54,12.6153 -2.54,10.0753 -3.6407,10.0753 -3.6407,10.16 -3.9794,10.16 -3.9794,10.2446 "/>
  </g>
  <g id="_355242248">
   <path id="_354423688" class="fil0" d="M28.0246 14.0546l0.0847 0 0 -0.3386 0.0846 0 0 -0.1694 0.0847 0 0 -0.1693 0.0847 0 0 -0.1693 0.0846 0 0 -0.1694 0.0847 0 0 -0.0846 0.0847 0 0 -0.0847 0.0846 0 0 -0.0847 0.0847 0 0 -0.0846 0.0847 0 0 -0.0847 0.0846 0 0 -0.0847 0.0847 0 0 -0.0846 0.0847 0 0 -0.0847 0.1693 0 0 -0.0847 0.1693 0 0 -0.0846 0.1694 0 0 -0.0847 0.254 0 0 -0.0847 0.3386 0 0 -0.0846 0.8467 0 0 0.0846 0.3387 0 0 0.0847 0.254 0 0 0.0847 0.1693 0 0 0.0846 0.1693 0 0 0.0847 0.0847 0 0 0.0847 0.1693 0 0 0.0846 0.0847 0 0 0.0847 0.0847 0 0 0.0847 0.0846 0 0 0.0846 0.0847 0 0 0.0847 0.0847 0 0 0.1693 0.0846 0 0 0.1694 0.0847 0 0 0.0846 0.0847 0 0 0.254 0.0846 0 0 0.1694 0.0847 0 0 0.3386 0.0847 0 0 0.254 -5.1647 0 0 -0.254zm1.9473 -3.9793l-0.508 0 0 0.0847 -0.3386 0 0 0.0846 -0.3387 0 0 0.0847 -0.1693 0 0 0.0847 -0.254 0 0 0.0846 -0.1694 0 0 0.0847 -0.1693 0 0 0.0847 -0.0847 0 0 0.0846 -0.1693 0 0 0.0847 -0.1693 0 0 0.0847 -0.0847 0 0 0.0846 -0.1693 0 0 0.0847 -0.0847 0 0 0.0847 -0.0846 0 0 0.0846 -0.0847 0 0 0.0847 -0.0847 0 0 0.0847 -0.0846 0 0 0.0846 -0.0847 0 0 0.0847 -0.0847 0 0 0.0847 -0.0846 0 0 0.0846 -0.0847 0 0 0.0847 -0.0847 0 0 0.0847 -0.0846 0 0 0.1693 -0.0847 0 0 0.0847 -0.0847 0 0 0.1693 -0.0846 0 0 0.0847 -0.0847 0 0 0.1693 -0.0847 0 0 0.1693 -0.0846 0 0 0.1694 -0.0847 0 0 0.1693 -0.0847 0 0 0.254 -0.0846 0 0 0.254 -0.0847 0 0 0.3387 -0.0847 0 0 0.4233 -0.0846 0 0 1.8627 0.0846 0 0 0.508 0.0847 0 0 0.254 0.0847 0 0 0.254 0.0846 0 0 0.254 0.0847 0 0 0.254 0.0847 0 0 0.0846 0.0846 0 0 0.1694 0.0847 0 0 0.1693 0.0847 0 0 0.0847 0.0846 0 0 0.1693 0.0847 0 0 0.0846 0.0847 0 0 0.1694 0.0846 0 0 0.0846 0.0847 0 0 0.0847 0.0847 0 0 0.0847 0.0846 0 0 0.0846 0.0847 0 0 0.0847 0.0847 0 0 0.0847 0.0846 0 0 0.0846 0.0847 0 0 0.0847 0.0847 0 0 0.0847 0.1693 0 0 0.0846 0.0847 0 0 0.0847 0.0846 0 0 0.0847 0.1694 0 0 0.0846 0.1693 0 0 0.0847 0.0846 0 0 0.0847 0.1694 0 0 0.0846 0.1693 0 0 0.0847 0.254 0 0 0.0847 0.1693 0 0 0.0846 0.3387 0 0 0.0847 0.254 0 0 0.0847 0.4233 0 0 0.0846 2.032 0 0 -0.0846 0.4234 0 0 -0.0847 0.3386 0 0 -0.0847 0.254 0 0 -0.0846 0.254 0 0 -0.0847 0.1694 0 0 -0.0847 0.1693 0 0 -0.0846 0.1693 0 0 -0.0847 0.1694 0 0 -0.0847 0.0846 0 0 -0.0846 0.1694 0 0 -0.0847 0.1693 0 0 -0.0847 0.0847 0 0 -0.0846 0.0846 0 0 -0.0847 0.0847 0 0 -0.0847 0.1693 0 0 -0.0846 0.0847 0 0 -0.0847 0.0847 0 0 -0.0847 0.0846 0 0 -0.0846 0.0847 0 0 -0.1694 -0.0847 0 0 -0.0846 -0.0846 0 0 -0.0847 -0.0847 0 0 -0.0847 -0.0847 0 0 -0.0846 -0.0846 0 0 -0.1693 -0.0847 0 0 -0.0847 -0.0847 0 0 -0.0847 -0.0846 0 0 -0.0846 -0.0847 0 0 -0.0847 -0.0847 0 0 -0.1693 -0.0846 0 0 -0.0847 -0.0847 0 0 -0.0847 -0.0847 0 0 -0.0846 -0.0846 0 0 -0.0847 -0.0847 0 0 -0.1693 -0.1693 0 0 0.0846 -0.0847 0 0 0.0847 -0.0847 0 0 0.0847 -0.0846 0 0 0.0846 -0.0847 0 0 0.0847 -0.0847 0 0 0.0847 -0.0846 0 0 0.0846 -0.1694 0 0 0.0847 -0.0846 0 0 0.0847 -0.1694 0 0 0.0846 -0.0846 0 0 0.0847 -0.254 0 0 0.0847 -0.1694 0 0 0.0846 -0.254 0 0 0.0847 -0.508 0 0 0.0846 -0.9313 0 0 -0.0846 -0.508 0 0 -0.0847 -0.254 0 0 -0.0846 -0.1693 0 0 -0.0847 -0.1694 0 0 -0.0847 -0.1693 0 0 -0.0846 -0.0847 0 0 -0.0847 -0.0846 0 0 -0.0847 -0.1694 0 0 -0.0846 -0.0846 0 0 -0.0847 -0.0847 0 0 -0.1693 -0.0847 0 0 -0.0847 -0.0846 0 0 -0.0847 -0.0847 0 0 -0.1693 -0.0847 0 0 -0.1693 -0.0846 0 0 -0.254 -0.0847 0 0 -0.254 -0.0847 0 0 -0.4234 7.5354 0 0 -0.0846 0.0846 0 0 -0.0847 -0.0846 0 0 -0.1693 0.0846 0 0 -0.0847 -0.0846 0 0 -1.3547 -0.0847 0 0 -0.4233 -0.0847 0 0 -0.3387 -0.0846 0 0 -0.254 -0.0847 0 0 -0.254 -0.0847 0 0 -0.254 -0.0846 0 0 -0.1693 -0.0847 0 0 -0.1693 -0.0847 0 0 -0.1694 -0.0846 0 0 -0.0846 -0.0847 0 0 -0.1694 -0.0847 0 0 -0.0846 -0.0846 0 0 -0.1694 -0.0847 0 0 -0.0846 -0.0847 0 0 -0.0847 -0.0846 0 0 -0.0847 -0.0847 0 0 -0.0846 -0.0847 0 0 -0.0847 -0.0846 0 0 -0.0847 -0.0847 0 0 -0.0846 -0.0847 0 0 -0.0847 -0.0846 0 0 -0.0847 -0.0847 0 0 -0.0846 -0.1693 0 0 -0.0847 -0.0847 0 0 -0.0847 -0.1693 0 0 -0.0846 -0.0847 0 0 -0.0847 -0.1693 0 0 -0.0847 -0.1694 0 0 -0.0846 -0.1693 0 0 -0.0847 -0.254 0 0 -0.0847 -0.254 0 0 -0.0846 -0.3387 0 0 -0.0847 -0.5926 0 0 -0.0847 -1.1854 0 0 0.0847z"/>
   <polygon id="_354165584" class="fil0" points="16.6793,11.3453 16.5946,11.3453 16.5946,10.414 16.51,10.414 16.51,10.3293 14.3933,10.3293 14.3933,20.2353 16.6793,20.2353 16.6793,14.224 16.764,14.224 16.764,14.3933 16.8486,14.3933 16.8486,13.8853 16.9333,13.8853 16.9333,13.6313 17.018,13.6313 17.018,13.462 17.1026,13.462 17.1026,13.2926 17.1873,13.2926 17.1873,13.208 17.272,13.208 17.272,13.0386 17.3566,13.0386 17.3566,12.954 17.4413,12.954 17.4413,12.8693 17.526,12.8693 17.526,12.7846 17.6106,12.7846 17.6106,12.7 17.78,12.7 17.78,12.6153 17.8646,12.6153 17.8646,12.5306 18.034,12.5306 18.034,12.446 18.2033,12.446 18.2033,12.3613 18.6266,12.3613 18.6266,12.2766 19.7273,12.2766 19.7273,12.3613 20.066,12.3613 20.066,12.446 20.2353,12.446 20.2353,12.5306 20.4046,12.5306 20.4046,12.6153 20.574,12.6153 20.574,12.7 20.6586,12.7 20.6586,12.7846 20.7433,12.7846 20.7433,12.8693 20.828,12.8693 20.828,12.954 20.9126,12.954 20.9126,13.0386 20.9973,13.0386 20.9973,13.208 21.082,13.208 21.082,13.2926 21.1666,13.2926 21.1666,13.5466 21.2513,13.5466 21.2513,13.8006 21.336,13.8006 21.336,14.478 21.4206,14.478 21.4206,20.2353 21.336,20.2353 21.336,20.3199 23.876,20.3199 23.876,19.3039 23.7913,19.3039 23.7913,13.1233 23.7066,13.1233 23.7066,12.7 23.622,12.7 23.622,12.446 23.5373,12.446 23.5373,12.192 23.4526,12.192 23.4526,12.0226 23.368,12.0226 23.368,11.8533 23.2833,11.8533 23.2833,11.7686 23.1986,11.7686 23.1986,11.5993 23.114,11.5993 23.114,11.5146 23.0293,11.5146 23.0293,11.3453 22.9446,11.3453 22.9446,11.2606 22.86,11.2606 22.86,11.176 22.7753,11.176 22.7753,11.0913 22.6906,11.0913 22.6906,11.0066 22.606,11.0066 22.606,10.922 22.5213,10.922 22.5213,10.8373 22.4366,10.8373 22.4366,10.7526 22.2673,10.7526 22.2673,10.668 22.1826,10.668 22.1826,10.5833 22.0133,10.5833 22.0133,10.4986 21.9286,10.4986 21.9286,10.414 21.7593,10.414 21.7593,10.3293 21.5053,10.3293 21.5053,10.2446 21.2513,10.2446 21.2513,10.16 20.9973,10.16 20.9973,10.0753 20.4893,10.0753 20.4893,9.9906 19.304,9.9906 19.304,10.0753 18.8806,10.0753 18.8806,10.16 18.542,10.16 18.542,10.2446 18.288,10.2446 18.288,10.3293 18.1186,10.3293 18.1186,10.414 17.9493,10.414 17.9493,10.4986 17.78,10.4986 17.78,10.5833 17.6106,10.5833 17.6106,10.668 17.526,10.668 17.526,10.7526 17.3566,10.7526 17.3566,10.8373 17.272,10.8373 17.272,10.922 17.1873,10.922 17.1873,11.0066 17.1026,11.0066 17.1026,11.0913 17.018,11.0913 17.018,11.176 16.9333,11.176 16.9333,11.2606 16.8486,11.2606 16.8486,11.3453 16.764,11.3453 16.764,11.5146 16.6793,11.5146 "/>
   <polygon id="_350409376" class="fil0" points="38.1846,10.2446 38.2693,10.2446 38.2693,10.3293 36.3219,10.3293 36.3219,12.1073 38.1846,12.1073 38.1846,12.192 36.2373,12.192 36.2373,12.2766 38.1846,12.2766 38.1846,18.2033 38.2693,18.2033 38.2693,18.5419 38.3539,18.5419 38.3539,18.7959 38.4386,18.7959 38.4386,19.0499 38.5233,19.0499 38.5233,19.2193 38.6079,19.2193 38.6079,19.3886 38.6926,19.3886 38.6926,19.4733 38.7773,19.4733 38.7773,19.5579 38.8619,19.5579 38.8619,19.6426 38.9466,19.6426 38.9466,19.8119 39.0313,19.8119 39.0313,19.8966 39.2006,19.8966 39.2006,19.9813 39.2853,19.9813 39.2853,20.0659 39.3699,20.0659 39.3699,20.1506 39.5393,20.1506 39.5393,20.2353 39.7086,20.2353 39.7086,20.3199 39.9626,20.3199 39.9626,20.4046 40.3013,20.4046 40.3013,20.4893 40.7246,20.4893 40.7246,20.5739 41.9099,20.5739 41.9099,20.4893 42.4179,20.4893 42.4179,20.4046 42.7566,20.4046 42.7566,20.3199 43.1799,20.3199 43.1799,18.3726 42.9259,18.3726 42.9259,18.4573 41.4866,18.4573 41.4866,18.3726 41.2326,18.3726 41.2326,18.288 41.1479,18.288 41.1479,18.2033 41.0633,18.2033 41.0633,18.1186 40.9786,18.1186 40.9786,17.9493 40.8939,17.9493 40.8939,17.78 40.8093,17.78 40.8093,17.526 40.7246,17.526 40.7246,12.2766 43.1799,12.2766 43.1799,10.2446 43.0953,10.2446 43.0953,12.192 40.7246,12.192 40.7246,12.1073 43.0106,12.1073 43.0106,10.3293 40.8939,10.3293 40.8939,10.2446 40.7246,10.2446 40.7246,7.5353 40.5553,7.5353 40.5553,7.62 40.0473,7.62 40.0473,7.7046 39.4546,7.7046 39.4546,7.7893 38.7773,7.7893 38.7773,7.874 38.1846,7.874 "/>
   <polygon id="_40685552" class="fil0" points="16.6793,11.3453 16.6793,10.2446 14.3086,10.2446 14.3086,20.3199 16.764,20.3199 16.764,14.224 16.6793,14.224 16.6793,20.2353 14.3933,20.2353 14.3933,10.3293 16.51,10.3293 16.51,10.414 16.5946,10.414 16.5946,11.3453 "/>
   <polygon id="_357554736" class="fil0" points="43.0953,10.2446 40.8939,10.2446 40.8939,10.3293 43.0106,10.3293 43.0106,12.1073 40.7246,12.1073 40.7246,12.192 43.0953,12.192 "/>
   <polygon id="_40587056" class="fil0" points="36.2373,12.192 38.1846,12.192 38.1846,12.1073 36.3219,12.1073 36.3219,10.3293 38.2693,10.3293 38.2693,10.2446 36.1526,10.2446 36.1526,10.3293 36.2373,10.3293 "/>
  </g>
  <g id="_355242152">
   <path id="_350409592" class="fil0" d="M23.622 -20.1507l0 -0.0847 1.4393 0 0 0.0847 0.0847 0 0 1.4393 -1.6087 0 0 -1.4393 0.0847 0zm2.3706 -0.0847l1.27 0 0 1.016 0.0847 0 0 0.3387 -1.3547 0 0 -1.3547zm-4.1486 -9.1439l0.0846 0 0 -0.0847 0.0847 0 0 -0.1693 0.0847 0 0 -0.0847 0.0846 0 0 -0.0847 0.0847 0 0 -0.0846 0.1693 0 0 -0.0847 0.254 0 0 -0.0847 5.5034 0 0 0.0847 0.3386 0 0 0.0847 0.0847 0 0 0.0846 0.1693 0 0 0.1694 0.0847 0 0 0.0846 0.0847 0 0 0.0847 0.0846 0 0 0.254 0.0847 0 0 6.604 -0.0847 0 0 0.1693 -0.0846 0 0 0.1693 -0.0847 0 0 0.0847 -0.0847 0 0 0.0847 -0.0846 0 0 0.0846 -0.1694 0 0 0.0847 -0.1693 0 0 0.0847 -5.7573 0 0 -0.0847 -0.1694 0 0 -0.0847 -0.1693 0 0 -0.0846 -0.0847 0 0 -0.0847 -0.0846 0 0 -0.0847 -0.0847 0 0 -0.0846 -0.0847 0 0 -0.254 -0.0846 0 0 -6.7733zm-0.6774 -2.286l-0.254 0 0 0.0846 -0.1693 0 0 0.0847 -0.0847 0 0 0.0847 -0.0846 0 0 0.0846 -0.0847 0 0 0.0847 -0.0847 0 0 0.0847 -0.0846 0 0 0.0846 -0.0847 0 0 0.1694 -0.0847 0 0 0.1693 -0.0846 0 0 0.254 -0.0847 0 0 13.716 0.0847 0 0 0.254 0.0846 0 0 0.1693 0.0847 0 0 0.1693 0.0847 0 0 0.0847 0.0846 0 0 0.0847 0.0847 0 0 0.0846 0.0847 0 0 0.0847 0.0846 0 0 0.0847 0.1694 0 0 0.0846 0.1693 0 0 0.0847 0.254 0 0 0.0847 3.302 0 0 16.3406 1.9473 0 0 -16.3406 3.2174 0 0 -0.0847 0.254 0 0 -0.0847 0.1693 0 0 -0.0846 0.1693 0 0 -0.0847 0.0847 0 0 -0.0847 0.0847 0 0 -0.0846 0.0846 0 0 -0.0847 0.0847 0 0 -0.1693 0.0847 0 0 -0.0847 0.0846 0 0 -0.254 0.0847 0 0 -0.3387 0.0847 0 0 -13.3773 -0.0847 0 0 -0.4233 -0.0847 0 0 -0.1693 -0.0846 0 0 -0.1694 -0.0847 0 0 -0.0846 -0.0847 0 0 -0.0847 -0.0846 0 0 -0.0847 -0.0847 0 0 -0.0846 -0.0847 0 0 -0.0847 -0.0846 0 0 -0.0847 -0.1694 0 0 -0.0846 -0.254 0 0 -0.0847 -8.636 0 0 0.0847z"/>
   <path id="_40548008" class="fil0" d="M25.8233 -25.908l0 0.0847 -1.1007 0 0 -1.6087 1.1854 0 0 0.0847 0.1693 0 0 0.0846 0.1693 0 0 0.0847 0.0847 0 0 0.1693 0.0847 0 0 0.762 -0.0847 0 0 0.0847 -0.0847 0 0 0.0847 -0.0846 0 0 0.0846 -0.1694 0 0 0.0847 -0.1693 0zm-2.286 2.6246l1.1853 0 0 -1.4393 1.1854 0 0 -0.0847 0.4233 0 0 -0.0846 0.254 0 0 -0.0847 0.254 0 0 -0.0847 0.1693 0 0 -0.0846 0.1694 0 0 -0.1693 0.0846 0 0 -0.0847 0.0847 0 0 -0.0847 0.0847 0 0 -0.1693 0.0846 0 0 -0.0847 0.0847 0 0 -0.254 0.0847 0 0 -0.254 0.0846 0 0 -0.8466 -0.0846 0 0 -0.254 -0.0847 0 0 -0.254 -0.0847 0 0 -0.0847 -0.0846 0 0 -0.1693 -0.0847 0 0 -0.0847 -0.0847 0 0 -0.0847 -0.0846 0 0 -0.0846 -0.0847 0 0 -0.0847 -0.0847 0 0 -0.0847 -0.1693 0 0 -0.0846 -0.254 0 0 -0.0847 -0.254 0 0 -0.0847 -2.794 0 0 5.2493z"/>
   <polygon id="_357554472" class="fil0" points="25.0613,-20.1507 25.0613,-18.796 23.622,-18.796 23.622,-20.1507 23.5373,-20.1507 23.5373,-18.7114 25.146,-18.7114 25.146,-20.1507 "/>
   <polygon id="_350409736" class="fil0" points="23.622,-18.8807 23.622,-18.796 25.0613,-18.796 25.0613,-20.2354 24.9766,-20.2354 24.9766,-18.8807 "/>
   <polygon id="_40685768" class="fil0" points="25.8233,-25.908 24.8073,-25.908 24.8073,-27.432 24.7226,-27.432 24.7226,-25.8233 25.8233,-25.8233 "/>
  </g>
 </g>
</svg>
